<svg width="48" height="48" viewBox="0 0 48 48" fill="none" xmlns="http://www.w3.org/2000/svg">
<g clip-path="url(#clip0_1_137)">
<path fill-rule="evenodd" clip-rule="evenodd" d="M32.1918 30.1911C33.7813 24.9827 35.37 19.7973 36.9569 14.6072L37.0849 14.6337C36.928 19.8046 36.7765 24.9736 36.6242 30.1911C35.141 30.1911 33.7128 30.1911 32.1918 30.1911ZM47.6916 39.0654C47.4455 35.4423 47.1795 31.8183 46.9307 28.1924C46.6899 24.635 46.4708 21.0749 46.2301 17.5175C45.9398 13.241 45.617 8.97085 45.3474 4.69615C45.3104 4.17778 45.1941 4.00322 44.6694 4.00243C41 3.99696 36 4.00243 33 4.00243C32.5826 4.00243 32.4081 4.15314 32.2459 4.55195C31.7617 5.75478 31.2757 6.9567 30.7915 8.15953C31.8176 9.72468 32.4163 11.6056 32.5461 13.7658C32.822 18.4566 31.2982 22.6556 28.0199 26.2458C27.0786 27.2807 26.1617 27.8694 24.527 28.3996L28.6384 41.4683C28.8287 40.8769 29.027 40.2828 29.2083 39.6896C29.3336 39.2707 29.4914 39.0654 29.9746 39.0928C30.8582 39.1402 31.7472 39.1064 32.6372 39.1064C33.8697 39.1064 35.1076 39.1064 36.4474 39.1064C36.4474 40.7574 36.4474 42.3847 36.4474 44C39 44 45 44 48 44C47.8684 41.7847 47.7656 40.1398 47.6916 39.0654Z" fill="#007535"/>
<path fill-rule="evenodd" clip-rule="evenodd" d="M14.152 22.7258C15.1392 23.0416 16.2194 22.8135 17.2013 22.1007C18.7845 20.949 19.5599 19.3656 19.834 17.4162C20.201 14.8353 18.7322 12.9207 16.186 12.8422C15.8263 12.8294 15.6766 12.9188 15.627 13.2985C15.5008 14.2932 15.3295 15.2844 15.1699 16.2791C14.8336 18.4137 14.4955 20.5529 14.152 22.7258ZM6.18517 4.72352C6.25911 4.24166 6.39252 4.00204 6.96147 4.00255C11 4.00621 14.6379 4.00621 18.4717 4.10477C20.9584 4.16683 23.409 4.57842 25.7054 5.62337C29.201 7.2168 30.9673 10.0505 31.1963 13.8497C31.4551 18.2641 29.9846 22.077 27.0263 25.3177C26.0453 26.3964 25.123 26.8737 22.8139 27.4669C24.5396 32.9572 26.2544 38.4531 28 44C27.0614 44 19.9745 44 17 44C16.5492 44 16.3772 43.905 16.2843 43.404C15.3665 38.4557 14.4161 33.513 13.4703 28.5684C13.4505 28.4635 13.3982 28.3677 13.299 28.1121C12.4452 33.4865 11.5977 38.7524 10.77 44H0C3.81449 19.821 5.87621 6.72885 6.18517 4.72352Z" fill="#90B823"/>
</g>
<defs>
<clipPath id="clip0_1_137">
<rect width="48" height="48" fill="white"/>
</clipPath>
</defs>
</svg>
